<?xml version="1.0" encoding="utf-8"?>
<!-- Generator: Adobe Illustrator 19.0.0, SVG Export Plug-In . SVG Version: 6.00 Build 0)  -->
<svg version="1.1" xmlns="http://www.w3.org/2000/svg" xmlns:xlink="http://www.w3.org/1999/xlink" x="0px" y="0px"
	 viewBox="-26 237.7 558.7 319.3" style="enable-background:new -26 237.7 558.7 319.3;" xml:space="preserve">
<style type="text/css">
	.st0{display:none;}
	.st1{display:inline;}
	.st2{fill:#FFFFFF;}
	.st3{display:none;fill:#FFFFFF;}
</style>
<g id="Layer_2" class="st0">
	<rect x="-40" y="204.7" class="st1" width="572.7" height="352.3"/>
</g>
<g id="Layer_1">
	<g id="Layer_4">
		<g>
			<path class="st2" d="M5.6,478.7c-3.9-0.5-6.6-1.5-8.1-3.1s-2.1-4.1-1.9-7.6c0.7-9.7,2.3-21.6,4.8-35.8C2.9,418,6,404.3,9.6,391.1
				c0.7-2.4,2.1-4.2,4.1-5.1c2.1-1,4.7-1.5,8.1-1.5c6,0,8.9,1.7,8.9,5c0,1.4-0.3,2.9-0.9,4.7c-2.5,7.8-5.1,18.3-7.6,31.4
				c-2.5,13.1-4.3,25.7-5.4,37.6c2.9,0.3,6.2,0.4,10,0.4c17.1,0,29.9-5.2,38.3-15.5c8.4-10.4,12.7-24.2,12.7-41.5
				c0-11.6-3.3-20.6-10-27c-6.6-6.3-16-9.5-28.1-9.5c-7.8,0-15.6,1.2-23.2,3.7c-7.7,2.4-14.6,5.7-20.7,9.7c-1.3,0.9-2.6,1.3-4.1,1.3
				c-1.7,0-3-0.7-4-2.1c-1-1.4-1.5-3.1-1.5-5.2c0-2.3,0.4-4.3,1.2-5.8s2.1-2.9,4-4.2c6.7-4.6,14.7-8.1,23.7-10.5
				c9.1-2.4,17.8-3.6,26.2-3.6c11.9,0,22.2,2.1,30.9,6.2c8.7,4.2,15.4,10.2,20.1,18.2s7,17.7,7,29c0,14.7-2.9,27.6-8.8,38.6
				S76.1,464.9,64.9,471s-24.6,9.1-40.1,9.1C19.1,480.2,12.7,479.7,5.6,478.7z"/>
		</g>
	</g>
	<g id="Layer_6">
	</g>
	<g id="Layer_7">
		<path class="st2" d="M197.5,436.6c-0.8-1.3-2-2-3.4-2c-1.7,0-3.2,0.8-4.5,2.4c-5.2,6.2-9.2,10.6-12.3,13.4c-3,2.7-5.6,4.1-7.7,4.1
			c-1.3,0-2.4-0.5-3.3-1.5c-0.8-1-1.3-2.4-1.3-4c0-5,1.3-14,3.9-26.9c1.7-8.8,2.5-14.4,2.5-16.8c0-1.3-0.3-2.4-1-3.3
			c-5.2-11.8-26.6-8.1-26.6-8.1l0,0c-5.9,0.8-11.6,3.1-17,6.9c-6.9,4.9-12.4,11.3-16.5,19.3s-6.2,16.5-6.2,25.4
			c0,8.2,2.1,14.8,6.2,19.8c4.1,5,9.7,7.6,16.6,7.6c8.8,0,16.2-4.7,22-14.1c1.6,4.4,3.9,7.8,7,10.3s6.5,3.8,10.2,3.8
			c4.8,0,9.8-2,15-5.9c5.1-3.9,10-8.7,14.6-14.4c2.1-2.5,3.2-5.9,3.2-10.4C198.8,439.8,198.3,438,197.5,436.6z M144.8,440
			c-1,4.8-2.6,8.7-4.9,11.6c-2.2,2.9-4.6,4.4-7.1,4.4s-4.4-0.8-5.8-2.5c-1.4-1.7-2.1-4.3-2.1-7.7c0-6.3,1.2-12.2,3.5-17.8
			c2.4-5.6,5.5-10.1,9.5-13.5c4-3.4,8.3-5.2,13-5.3L144.8,440z"/>
	</g>
	<g id="Layer_5">
		<g>
			<path class="st2" d="M290.8,465.3c-1.6-4.2-2.4-10.8-2.4-20c0-13.5,1.9-26.4,5.8-38.5c0.9-3,2.5-5.2,4.6-6.6
				c2.1-1.4,5.1-2.1,9-2.1c2.1,0,3.5,0.3,4.4,0.8c0.8,0.5,1.2,1.5,1.2,3c0,1.7-0.8,5.4-2.3,11.2c-1,4.2-1.9,7.8-2.5,10.9
				c-0.6,3.1-1.1,7-1.6,11.5c3.4-8.9,7.3-16.2,11.5-21.8c4.3-5.6,8.5-9.6,12.6-12c4.1-2.4,7.9-3.6,11.3-3.6
				c6.8,0,10.1,3.4,10.1,10.1c0,1.4-0.5,4.6-1.4,9.8c-0.8,4.2-1.2,6.8-1.2,7.8c0,3.6,1.3,5.5,3.9,5.5c2.9,0,6.7-2.3,11.2-6.9
				c1.4-1.4,2.8-2,4.2-2c1.4,0,2.4,0.6,3.2,1.8c0.8,1.2,1.2,2.8,1.2,4.8c0,3.8-1,6.9-3.1,9.1c-2.9,3-6.3,5.6-10.2,7.7
				c-3.9,2.1-8,3.2-12.4,3.2c-5.5,0-9.7-1.4-12.6-4.2s-4.3-6.6-4.3-11.4c0-1.6,0.2-3.1,0.5-4.7c0.2-2.1,0.3-3.5,0.3-4.2
				c0-1.7-0.6-2.5-1.7-2.5c-1.6,0-3.6,1.7-6.2,5.2c-2.5,3.5-5.1,8.1-7.6,13.8s-4.5,11.8-6.1,18.1c-1.1,4.9-2.5,8.2-4,9.9
				s-3.9,2.6-7.1,2.6C295.2,471.6,292.4,469.5,290.8,465.3z"/>
			<path class="st2" d="M442.2,438.3c0.8,1.3,1.2,2.9,1.2,4.9c0,2.4-0.4,4.3-1.1,5.6c-0.7,1.4-1.9,2.5-3.4,3.6l-30,20.1
				c-4,21.5-9.1,38.5-15.5,50.8c-6.4,12.3-14.5,18.5-24.4,18.5c-5.3,0-9.6-1.6-13-4.9c-3.3-3.3-5-7.6-5-12.9c0-4.9,1.1-9.9,3.4-15
				c2.2-5.1,6.4-11,12.5-17.6s14.7-14.2,25.8-22.7l0.5-3.6c0.7-3.8,1.6-9.4,2.5-16.5c-2.1,7.5-5,13.2-8.7,17.1
				c-3.7,3.9-7.7,5.9-11.9,5.9c-4.7,0-8.5-2.2-11.5-6.5c-3-4.3-4.4-9.7-4.4-16.2c0-7.8,0.5-15,1.6-21.5c1-6.5,2.8-13.4,5.1-20.7
				c1-3.1,2.5-5.4,4.4-6.7c1.9-1.4,4.8-2,8.9-2c2.3,0,3.9,0.4,4.8,1.1s1.3,1.8,1.3,3.3c0,0.8-0.6,3.6-1.7,8.4
				c-1,3.8-1.9,7.3-2.5,10.5c-0.8,4.3-1.6,8.3-2.2,12.3c-0.6,3.9-0.9,7.1-0.9,9.6c0,4,1.1,5.9,3.3,5.9c1.6,0,3.5-1.6,5.9-4.7
				c2.4-3.1,4.8-7.9,7.5-14.2s5.2-14.1,7.7-23.4c0.8-3.1,2.1-5.4,3.8-6.7c1.7-1.4,4.3-2,7.7-2c2.4,0,4.1,0.3,5,0.9
				c0.9,0.6,1.4,1.7,1.4,3.1c0,2.6-1.4,11.5-4.1,26.8l-4.1,25.1c8-6,15.8-11.5,23.4-16.5c1.4-0.8,2.5-1.2,3.6-1.2
				C440.3,436.3,441.4,437,442.2,438.3z M379.4,517.6c3.2-6,6.4-16.1,9.7-30.1c-8,6.8-13.8,12.9-17.4,18.5s-5.4,10.4-5.4,14.6
				c0,1.8,0.3,3.2,1,4.4c0.7,1.1,1.8,1.7,3.4,1.7C373.2,526.7,376.1,523.6,379.4,517.6z"/>
			<path class="st2" d="M521.9,437.9c0.8,1.2,1.2,3,1.2,5.1c0,4.2-1,7.4-3,9.7c-4.5,5.5-9.3,10-14.4,13.6c-5.1,3.5-11,5.3-17.6,5.3
				c-5.5,0-10-2-13.4-5.9c-5.9,3.8-12.1,5.8-18.6,5.9c-1.4,20.1-4.4,36.9-9.2,50.3c-4.8,13.5-11.8,20.2-21.1,20.2
				c-5.6,0-9.8-2-12.5-6.1c-2.7-4.1-4.1-9.7-4.1-16.9c0-10.2,2.3-22.1,7-35.7c4.7-13.6,11.9-28.5,21.7-44.9
				c0-15.2-0.1-25.7-0.3-31.7c-0.1-3,1.1-5.4,3.6-7.2s5.6-2.7,9.4-2.7c2.2,0,3.8,0.4,4.8,1.3s1.5,2.6,1.6,5.2c0,2.6,0.1,4.5,0.2,5.8
				c3.3-4.2,6.6-7.2,9.8-9c3.2-1.8,6.7-2.7,10.3-2.7c5.8,0,10.6,2.3,14.3,7c3.7,4.7,5.5,10.8,5.5,18.4c0,5.5-0.9,10.9-2.7,16.1
				c-1.8,5.2-4.2,9.9-7.3,14.2c2.2,0.6,4,0.9,5.5,0.9c3.4,0,6.7-1.2,9.8-3.7s7.1-6.7,12-12.5c1.2-1.5,2.7-2.2,4.2-2.2
				C520.1,436,521.1,436.6,521.9,437.9z M434.1,508.5c1.9-12.2,3.1-27.4,3.6-45.6c-4.5,10.4-8,20.3-10.6,29.8s-3.9,17.4-3.9,23.9
				c0,3.3,0.4,5.9,1.2,7.6c0.8,1.8,1.7,2.7,2.7,2.7C429.9,526.8,432.3,520.7,434.1,508.5z M467.3,450.4c3.2-3.3,5.7-7.3,7.6-12.2
				c1.9-4.8,2.8-9.9,2.8-15.2c0-3.1-0.6-5.5-1.9-7.1c-1.2-1.6-2.9-2.4-5-2.4c-3.7,0-8.3,4-13.6,11.9c-0.1,4.6-0.2,11.3-0.2,20.1
				c0,4.8-0.1,8.5-0.2,11.1C460.7,455.8,464.1,453.7,467.3,450.4z"/>
		</g>
	</g>
	<g id="Layer_8">
		<g>
			<path class="st2" d="M280.2,386.4c0.3-2.1,0.4-4.3,0.4-6.6c0-26.6-21.1-48.1-47.2-48.1c-26,0-47.2,21.5-47.2,48.1
				c0,2.2,0.2,4.4,0.4,6.6H280.2z"/>
			<path class="st2" d="M342.3,385.6c-0.3-59.8-48.8-108.1-108.6-108.1s-108.3,48.4-108.6,108.1h37.3c0-0.6,0-1.2,0-1.8
				c0-3.9,0.3-7.7,1-11.5c-2.7-3.2-8.6-9.2-14.5-9c0,0,12.2-6.5,18.6-5.6c6.9-17.1,20.4-30.9,37.3-38.2c1.5-5.1,5.5-17.1,11.1-18
				c0,0-0.7,8,4.1,13.4c4-0.7,8.1-1.1,12.3-1.1c20.7,0,39.3,9,52.1,23.3c5.5,0.9,15.6,2.1,19.6-0.7c0,0,1.5,9.8-8.1,18.3
				c4,8.8,6.3,18.7,6.3,29c0,0.6,0,1.2,0,1.8h40.1V385.6z"/>
			<g>
				<path class="st2" d="M187.8,399.4c0,0,19.4-13.9,41.8-5.1c0,0,17,8,20.7,13.3c0,0-21.3-2.2-35.6,4.1
					C214.8,411.8,205.6,400.1,187.8,399.4z"/>
				<path class="st2" d="M234.8,392.9c0,0,8.8,4.3,17,11.3c0,0,12,1.8,17-11.3c0,0-10.1,4-32.9,0H234.8z"/>
				<path class="st3" d="M211.6,418.4c0,0,5.1-7.9,27.1-6.6c0,0,20.9,1.9,31.8-11.5c0,0,1.2,23.3-20.1,24.5
					C250.4,424.8,233.9,425.4,211.6,418.4z"/>
				<path class="st2" d="M194.1,414.5c0,0,12.3,9.6,28.8,11c0,0,6.7,0.1,10.3-0.1c0,0,12.9-0.1,17.8,4.2c0,0-11.3-0.8-19.6,4.3
					c0,0-15.1,6.5-23.7,2.9c0,0-6.9-2.6-12.2-15.6L194.1,414.5z"/>
				<path class="st3" d="M209.3,444.8c0,0,13.3-10.1,31.2-7.9c0,0,19.7,4.1,28.8-15.2c0,0,7.5,16.5-17.4,28.4c0,0-3.3,3.2-29.2,1.8
					c0,0-11-1.3-15.5,9.6L209.3,444.8z"/>
				<path class="st2" d="M212.3,460.7c0,0,9.6-8.3,22.5-3.7c0,0,3.8,1.6,6.2,3.7c0,0,3.1,3.1,8.8,1.8c0,0-0.2,4.5-23.5,4.7
					c0,0-7.7-0.9-11.7,0.9c0,0-6.2,2-7.5,4L212.3,460.7z"/>
				<path class="st2" d="M240,455.7c0,0,19.5,1,25.5-7.5c0,0,2.4,5.9-10.2,12.4C255.2,460.6,247.5,463.7,240,455.7z"/>
				<path class="st2" d="M217.6,473.7c0,0,8.7-6.9,23.5-2.6c0,0,12.1,1.6,18.4-7.7c0,0,1.8,10.9-12.7,16.6c0,0-3.5,2.3-11.9,2.4
					c0,0-4.9,0.6-8.3-2.4L217.6,473.7z"/>
				<path class="st2" d="M217.6,476.6c0,0,8.2,10.1,17.1,9c0,0,10-0.7,15.2,1.7c0,0-8.8-0.7-13.4,3.3c0,0-5.6,6.1-12.7,0.9
					C223.6,491.5,219.4,488.5,217.6,476.6z"/>
				<path class="st2" d="M219.4,414.5c0,0,22.4-6.3,35.4-0.6c0,0,8.7,4.1,15.3-5.4c0,0,0.8,13.8-15.5,16.5c0,0-4,1.6-14.8-2.8
					c0,0-5.1-4.4-18.4-0.9c0,0-6.3,1.7-15.8-6.7C205.7,414.7,212.2,416.1,219.4,414.5z"/>
				<path class="st2" d="M223.8,441.2c0,0,16.9-8.1,31.2-7.3c0,0,9.9-0.5,14.1-7.6c0,0,3.7,18.9-19.3,22.5c0,0-3,1.1-14.2,0
					c0,0-3.4-1.2-12.4,3c0,0-9.1,6.5-17.5-1.9c0,0-1.8-2.2-2.8-4.5C202.9,445.3,209.7,447.4,223.8,441.2z"/>
			</g>
			<path class="st2" d="M348.1,372.2l21.2-11.2c-2.4-12.7-6.5-24.8-12.1-36l-20.3-2.4l8.7-16.8c-14-19.4-32.9-35.1-54.9-45.2
				L267,277.5l2.8-24.5c-11.8-3.3-24.3-5-37.1-5c-1.9,0-3.8,0.1-5.7,0.1l-8.1,12.5l-12.7-10.1c-11.3,2.2-22.2,5.8-32.4,10.5
				l-6.3,12.9l-10.2-3.7c-12.9,8.4-24.4,18.8-33.9,30.9l10.3,18.2l-20.5-3.3c-9.5,16-15.9,34.1-18.4,53.5l20,16.1h18.7
				c0-1.1-0.1-2.1-0.1-3.2c0-55.2,44.8-100,100-100s100,44.8,100,100c0,1.1,0,2.2-0.1,3.2h38.6c0-3.1-0.2-6.2-0.4-9.3L348.1,372.2z"
				/>
		</g>
	</g>
</g>
</svg>
