<?xml version="1.0" encoding="utf-8"?>
<!-- Generator: Adobe Illustrator 19.0.0, SVG Export Plug-In . SVG Version: 6.00 Build 0)  -->
<svg version="1.1" xmlns="http://www.w3.org/2000/svg" xmlns:xlink="http://www.w3.org/1999/xlink" x="0px" y="0px"
	 viewBox="0 0 526 319.3" style="enable-background:new 0 0 526 319.3;" xml:space="preserve">
<style type="text/css">
	.st0{fill:#3EB549;}
	.st1{fill:#F6891F;}
	.st2{fill:#F7C61A;}
	.st3{display:none;fill:#F6891F;}
</style>
<g id="Layer_4">
	<g>
		<path class="st0" d="M29.2,241c-3.8-0.5-6.4-1.5-7.8-3.1c-1.4-1.6-2-4.1-1.8-7.6c0.7-9.7,2.2-21.6,4.7-35.8
			c2.5-14.2,5.4-27.9,8.9-41.1c0.7-2.4,2-4.2,4-5.1c2-1,4.6-1.5,7.8-1.5c5.8,0,8.7,1.7,8.7,5c0,1.4-0.3,2.9-0.9,4.7
			c-2.5,7.8-4.9,18.3-7.4,31.4c-2.5,13.1-4.2,25.7-5.2,37.6c2.8,0.3,6.1,0.4,9.6,0.4c16.5,0,28.9-5.2,37.1-15.5
			c8.2-10.4,12.3-24.2,12.3-41.5c0-11.6-3.2-20.6-9.6-27c-6.4-6.3-15.5-9.5-27.2-9.5c-7.6,0-15.1,1.2-22.5,3.7
			c-7.4,2.4-14.1,5.7-20.1,9.7c-1.2,0.9-2.6,1.3-4,1.3c-1.6,0-2.9-0.7-3.8-2.1c-0.9-1.4-1.4-3.1-1.4-5.2c0-2.3,0.4-4.3,1.1-5.8
			c0.8-1.5,2-2.9,3.8-4.2c6.5-4.6,14.2-8.1,23-10.5c8.8-2.4,17.3-3.6,25.4-3.6c11.5,0,21.5,2.1,29.9,6.2
			c8.4,4.2,14.9,10.2,19.4,18.2c4.5,8,6.8,17.7,6.8,29c0,14.7-2.8,27.6-8.5,38.6c-5.7,11-14,19.5-24.8,25.6
			c-10.9,6.1-23.8,9.1-38.9,9.1C42.3,242.5,36.1,242,29.2,241z"/>
	</g>
</g>
<g id="Layer_6">
</g>
<g id="Layer_7">
	<path class="st0" d="M218.2,198.9c-0.8-1.3-2-2-3.4-2c-1.7,0-3.2,0.8-4.5,2.4c-5.2,6.2-9.2,10.6-12.3,13.4c-3,2.7-5.6,4.1-7.7,4.1
		c-1.3,0-2.4-0.5-3.3-1.5c-0.8-1-1.3-2.4-1.3-4c0-5,1.3-14,3.9-26.9c1.7-8.8,2.5-14.4,2.5-16.8c0-1.3-0.3-2.4-1-3.3
		c-5.2-11.8-26.6-8.1-26.6-8.1l0,0c-5.9,0.8-11.6,3.1-17,6.9c-6.9,4.9-12.4,11.3-16.5,19.3c-4.1,8-6.2,16.5-6.2,25.4
		c0,8.2,2.1,14.8,6.2,19.8c4.1,5,9.7,7.6,16.6,7.6c8.8,0,16.2-4.7,22-14.1c1.6,4.4,3.9,7.8,7,10.3c3.1,2.5,6.5,3.8,10.2,3.8
		c4.8,0,9.8-2,15-5.9c5.1-3.9,10-8.7,14.6-14.4c2.1-2.5,3.2-5.9,3.2-10.4C219.4,202.1,219,200.3,218.2,198.9z M165.5,202.3
		c-1,4.8-2.6,8.7-4.9,11.6c-2.2,2.9-4.6,4.4-7.1,4.4c-2.5,0-4.4-0.8-5.8-2.5c-1.4-1.7-2.1-4.3-2.1-7.7c0-6.3,1.2-12.2,3.5-17.8
		c2.4-5.6,5.5-10.1,9.5-13.5c4-3.4,8.3-5.2,13-5.3L165.5,202.3z"/>
</g>
<g id="Layer_5">
	<g>
		<path class="st0" d="M311.5,227.6c-1.6-4.2-2.4-10.8-2.4-20c0-13.5,1.9-26.4,5.8-38.5c0.9-3,2.5-5.2,4.6-6.6
			c2.1-1.4,5.1-2.1,9-2.1c2.1,0,3.5,0.3,4.4,0.8c0.8,0.5,1.2,1.5,1.2,3c0,1.7-0.8,5.4-2.3,11.2c-1,4.2-1.9,7.8-2.5,10.9
			c-0.6,3.1-1.1,7-1.6,11.5c3.4-8.9,7.3-16.2,11.5-21.8c4.3-5.6,8.5-9.6,12.6-12c4.1-2.4,7.9-3.6,11.3-3.6c6.8,0,10.1,3.4,10.1,10.1
			c0,1.4-0.5,4.6-1.4,9.8c-0.8,4.2-1.2,6.8-1.2,7.8c0,3.6,1.3,5.5,3.9,5.5c2.9,0,6.7-2.3,11.2-6.9c1.4-1.4,2.8-2,4.2-2
			c1.4,0,2.4,0.6,3.2,1.8c0.8,1.2,1.2,2.8,1.2,4.8c0,3.8-1,6.9-3.1,9.1c-2.9,3-6.3,5.6-10.2,7.7c-3.9,2.1-8,3.2-12.4,3.2
			c-5.5,0-9.7-1.4-12.6-4.2c-2.9-2.8-4.3-6.6-4.3-11.4c0-1.6,0.2-3.1,0.5-4.7c0.2-2.1,0.3-3.5,0.3-4.2c0-1.7-0.6-2.5-1.7-2.5
			c-1.6,0-3.6,1.7-6.2,5.2c-2.5,3.5-5.1,8.1-7.6,13.8c-2.5,5.7-4.5,11.8-6.1,18.1c-1.1,4.9-2.5,8.2-4,9.9c-1.5,1.7-3.9,2.6-7.1,2.6
			C315.9,233.9,313.1,231.8,311.5,227.6z"/>
		<path class="st0" d="M462.8,200.6c0.8,1.3,1.2,2.9,1.2,4.9c0,2.4-0.4,4.3-1.1,5.6c-0.7,1.4-1.9,2.5-3.4,3.6l-30,20.1
			c-4,21.5-9.1,38.5-15.5,50.8c-6.4,12.3-14.5,18.5-24.4,18.5c-5.3,0-9.6-1.6-13-4.9c-3.3-3.3-5-7.6-5-12.9c0-4.9,1.1-9.9,3.4-15
			c2.2-5.1,6.4-11,12.5-17.6c6.1-6.6,14.7-14.2,25.8-22.7l0.5-3.6c0.7-3.8,1.6-9.4,2.5-16.5c-2.1,7.5-5,13.2-8.7,17.1
			s-7.7,5.9-11.9,5.9c-4.7,0-8.5-2.2-11.5-6.5c-3-4.3-4.4-9.7-4.4-16.2c0-7.8,0.5-15,1.6-21.5c1-6.5,2.8-13.4,5.1-20.7
			c1-3.1,2.5-5.4,4.4-6.7c1.9-1.4,4.8-2,8.9-2c2.3,0,3.9,0.4,4.8,1.1c0.9,0.7,1.3,1.8,1.3,3.3c0,0.8-0.6,3.6-1.7,8.4
			c-1,3.8-1.9,7.3-2.5,10.5c-0.8,4.3-1.6,8.3-2.2,12.3c-0.6,3.9-0.9,7.1-0.9,9.6c0,4,1.1,5.9,3.3,5.9c1.6,0,3.5-1.6,5.9-4.7
			s4.8-7.9,7.5-14.2c2.7-6.3,5.2-14.1,7.7-23.4c0.8-3.1,2.1-5.4,3.8-6.7c1.7-1.4,4.3-2,7.7-2c2.4,0,4.1,0.3,5,0.9
			c0.9,0.6,1.4,1.7,1.4,3.1c0,2.6-1.4,11.5-4.1,26.8l-4.1,25.1c8-6,15.8-11.5,23.4-16.5c1.4-0.8,2.5-1.2,3.6-1.2
			C461,198.6,462.1,199.3,462.8,200.6z M400,279.9c3.2-6,6.4-16.1,9.7-30.1c-8,6.8-13.8,12.9-17.4,18.5c-3.6,5.6-5.4,10.4-5.4,14.6
			c0,1.8,0.3,3.2,1,4.4c0.7,1.1,1.8,1.7,3.4,1.7C393.9,289,396.8,285.9,400,279.9z"/>
		<path class="st0" d="M476.8,233.9c-1.4,20.1-4.4,36.9-9.2,50.3c-4.8,13.5-11.8,20.2-21.1,20.2c-5.6,0-9.8-2-12.5-6.1
			c-2.7-4.1-4.1-9.7-4.1-16.9c0-10.2,2.3-22.1,7-35.7c4.7-13.6,11.9-28.5,21.7-44.9c0-15.2-0.1-25.7-0.3-31.7
			c-0.1-3,1.1-5.4,3.6-7.2c2.5-1.8,5.6-2.7,9.4-2.7c2.2,0,3.8,0.4,4.8,1.3c1,0.9,1.5,2.6,1.6,5.2c0,2.6,0.1,4.5,0.2,5.8
			c3.3-4.2,6.6-7.2,9.8-9c3.2-1.8,6.7-2.7,10.3-2.7c5.8,0,10.6,2.3,14.3,7c3.7,4.7,5.5,10.8,5.5,18.4c0,5.5-0.9,10.9-2.7,16.1
			c-1.8,5.2-4.2,9.9-7.3,14.2C507.3,218.9,483.2,239.3,476.8,233.9z M454.8,270.8c1.9-12.2,3.1-27.4,3.6-45.6
			c-4.5,10.4-8,20.3-10.6,29.8c-2.6,9.5-3.9,17.4-3.9,23.9c0,3.3,0.4,5.9,1.2,7.6c0.8,1.8,1.7,2.7,2.7,2.7
			C450.6,289.1,452.9,283,454.8,270.8z M488,212.7c3.2-3.3,5.7-7.3,7.6-12.2c1.9-4.8,2.8-9.9,2.8-15.2c0-3.1-0.6-5.5-1.9-7.1
			c-1.2-1.6-2.9-2.4-5-2.4c-3.7,0-8.3,4-13.6,11.9c-0.1,4.6-0.2,11.3-0.2,20.1c0,4.8-0.1,8.5-0.2,11.1
			C481.3,218.1,484.8,216,488,212.7z"/>
	</g>
</g>
<g id="Layer_8">
	<g>
		<path class="st1" d="M308.8,148.7c0.3-2.1,0.4-4.3,0.4-6.6c0-26.6-21.1-48.1-47.2-48.1c-26,0-47.2,21.5-47.2,48.1
			c0,2.2,0.2,4.4,0.4,6.6H308.8z"/>
		<path class="st2" d="M371,147.9c-0.3-59.8-48.8-108.1-108.6-108.1c-59.8,0-108.3,48.4-108.6,108.1H191c0-0.6,0-1.2,0-1.8
			c0-3.9,0.3-7.7,1-11.5c-2.7-3.2-8.6-9.2-14.5-9c0,0,12.2-6.5,18.6-5.6c6.9-17.1,20.4-30.9,37.3-38.2c1.5-5.1,5.5-17.1,11.1-18
			c0,0-0.7,8,4.1,13.4c4-0.7,8.1-1.1,12.3-1.1c20.7,0,39.3,9,52.1,23.3c5.5,0.9,15.6,2.1,19.6-0.7c0,0,1.5,9.8-8.1,18.3
			c4,8.8,6.3,18.7,6.3,29c0,0.6,0,1.2,0,1.8H371z"/>
		<g>
			<path class="st1" d="M216.5,161.7c0,0,19.4-13.9,41.8-5.1c0,0,17,8,20.7,13.3c0,0-21.3-2.2-35.6,4.1
				C243.4,174.1,234.2,162.4,216.5,161.7z"/>
			<path class="st1" d="M263.5,155.2c0,0,8.8,4.3,17,11.3c0,0,12,1.8,17-11.3c0,0-10.1,4-32.9,0H263.5z"/>
			<path class="st3" d="M240.2,180.7c0,0,5.1-7.9,27.1-6.6c0,0,20.9,1.9,31.8-11.5c0,0,1.2,23.3-20.1,24.5
				C279.1,187.1,262.6,187.7,240.2,180.7z"/>
			<path class="st1" d="M222.8,176.8c0,0,12.3,9.6,28.8,11c0,0,6.7,0.1,10.3-0.1c0,0,12.9-0.1,17.8,4.2c0,0-11.3-0.8-19.6,4.3
				c0,0-15.1,6.5-23.7,2.9c0,0-6.9-2.6-12.2-15.6L222.8,176.8z"/>
			<path class="st3" d="M238,207.1c0,0,13.3-10.1,31.2-7.9c0,0,19.7,4.1,28.8-15.2c0,0,7.5,16.5-17.4,28.4c0,0-3.3,3.2-29.2,1.8
				c0,0-11-1.3-15.5,9.6L238,207.1z"/>
			<path class="st1" d="M240.9,223c0,0,9.6-8.3,22.5-3.7c0,0,3.8,1.6,6.2,3.7c0,0,3.1,3.1,8.8,1.8c0,0-0.2,4.5-23.5,4.7
				c0,0-7.7-0.9-11.7,0.9c0,0-6.2,2-7.5,4L240.9,223z"/>
			<path class="st1" d="M268.6,218c0,0,19.5,1,25.5-7.5c0,0,2.4,5.9-10.2,12.4C283.9,222.9,276.2,226,268.6,218z"/>
			<path class="st1" d="M246.2,236c0,0,8.7-6.9,23.5-2.6c0,0,12.1,1.6,18.4-7.7c0,0,1.8,10.9-12.7,16.6c0,0-3.5,2.3-11.9,2.4
				c0,0-4.9,0.6-8.3-2.4L246.2,236z"/>
			<path class="st1" d="M246.2,238.9c0,0,8.2,10.1,17.1,9c0,0,10-0.7,15.2,1.7c0,0-8.8-0.7-13.4,3.3c0,0-5.6,6.1-12.7,0.9
				C252.3,253.8,248.1,250.8,246.2,238.9z"/>
			<path class="st1" d="M248.1,176.8c0,0,22.4-6.3,35.4-0.6c0,0,8.7,4.1,15.3-5.4c0,0,0.8,13.8-15.5,16.5c0,0-4,1.6-14.8-2.8
				c0,0-5.1-4.4-18.4-0.9c0,0-6.3,1.7-15.8-6.7C234.4,177,240.9,178.4,248.1,176.8z"/>
			<path class="st1" d="M252.5,203.5c0,0,16.9-8.1,31.2-7.3c0,0,9.9-0.5,14.1-7.6c0,0,3.7,18.9-19.3,22.5c0,0-3,1.1-14.2,0
				c0,0-3.4-1.2-12.4,3c0,0-9.1,6.5-17.5-1.9c0,0-1.8-2.2-2.8-4.5C231.6,207.6,238.4,209.7,252.5,203.5z"/>
		</g>
		<path class="st0" d="M376.8,134.5l21.2-11.2c-2.4-12.7-6.5-24.8-12.1-36l-20.3-2.4l8.7-16.8c-14-19.4-32.9-35.1-54.9-45.2
			l-23.6,16.9l2.8-24.5c-11.8-3.3-24.3-5-37.1-5c-1.9,0-3.8,0.1-5.7,0.1l-8.1,12.5l-12.7-10.1c-11.3,2.2-22.2,5.8-32.4,10.5
			L196,36.2l-10.2-3.7c-12.9,8.4-24.4,18.8-33.9,30.9l10.3,18.2l-20.5-3.3c-9.5,16-15.9,34.1-18.4,53.5l20,16.1h18.7
			c0-1.1-0.1-2.1-0.1-3.2c0-55.2,44.8-100,100-100c55.2,0,100,44.8,100,100c0,1.1,0,2.2-0.1,3.2h38.6c0-3.1-0.2-6.2-0.4-9.3
			L376.8,134.5z"/>
	</g>
</g>
</svg>
