<?xml version="1.0" encoding="utf-8"?>
<!-- Generator: Adobe Illustrator 19.0.0, SVG Export Plug-In . SVG Version: 6.00 Build 0)  -->
<svg version="1.1" xmlns="http://www.w3.org/2000/svg" xmlns:xlink="http://www.w3.org/1999/xlink" x="0px" y="0px"
	 viewBox="0 0 291.5 264.8" style="enable-background:new 0 0 291.5 264.8;" xml:space="preserve">
<style type="text/css">
	.st0{display:none;}
	.st1{display:inline;}
	.st2{fill:#3EB549;}
	.st3{fill:#F6891F;}
	.st4{fill:#F7C61A;}
	.st5{display:none;fill:#F6891F;}
</style>
<g id="Layer_2" class="st0">
	<g class="st1">
		<path class="st2" d="M-73.4,154.9h27.6c7.2,0,13.4,0.7,18.5,2c5.1,1.3,9.8,3.8,14,7.5c10.9,9.3,16.4,23.5,16.4,42.6
			c0,6.3-0.5,12-1.6,17.2c-1.1,5.2-2.8,9.9-5.1,14c-2.3,4.2-5.2,7.9-8.8,11.2c-2.8,2.5-5.9,4.5-9.2,6.1c-3.3,1.5-6.9,2.6-10.7,3.2
			c-3.8,0.6-8.2,0.9-13,0.9h-27.6c-3.9,0-6.8-0.6-8.7-1.7c-2-1.2-3.2-2.8-3.8-4.9c-0.6-2.1-0.9-4.9-0.9-8.2v-76.8
			c0-4.6,1-7.9,3.1-9.9C-81.3,155.9-77.9,154.9-73.4,154.9z M-65.2,171.7v71.1h16.1c3.5,0,6.3-0.1,8.3-0.3c2-0.2,4.1-0.7,6.2-1.4
			c2.1-0.8,4-1.8,5.6-3.2c7.1-6,10.6-16.3,10.6-31c0-10.3-1.6-18.1-4.7-23.2c-3.1-5.1-7-8.4-11.5-9.8c-4.6-1.4-10.1-2.1-16.6-2.1
			H-65.2z"/>
		<path class="st2" d="M83.2,247.7l-5-13.1H35.6l-5,13.4c-2,5.2-3.6,8.8-5,10.6c-1.4,1.8-3.6,2.7-6.8,2.7c-2.7,0-5-1-7.1-2.9
			c-2-2-3.1-4.2-3.1-6.6c0-1.4,0.2-2.9,0.7-4.4c0.5-1.5,1.3-3.6,2.4-6.4l26.8-68c0.8-2,1.7-4.3,2.7-7c1.1-2.7,2.2-5,3.4-6.8
			c1.2-1.8,2.8-3.3,4.8-4.4c2-1.1,4.4-1.7,7.3-1.7c3,0,5.4,0.6,7.4,1.7c2,1.1,3.6,2.6,4.8,4.3c1.2,1.8,2.2,3.7,3.1,5.7
			c0.8,2,1.9,4.7,3.2,8.1l27.3,67.6c2.1,5.1,3.2,8.9,3.2,11.2c0,2.4-1,4.7-3,6.7c-2,2-4.5,3-7.3,3c-1.7,0-3.1-0.3-4.3-0.9
			c-1.2-0.6-2.2-1.4-3-2.4c-0.8-1-1.7-2.6-2.6-4.7C84.6,251.2,83.8,249.3,83.2,247.7z M41.2,218.6h31.3l-15.8-43.2L41.2,218.6z"/>
	</g>
</g>
<g id="Layer_2_copy" class="st0">
	<g class="st1">
		<path class="st2" d="M236.6,217h-7.4v31.4c0,4.4-1,7.7-2.9,9.8s-4.5,3.1-7.6,3.1c-3.4,0-6-1.1-7.9-3.3c-1.9-2.2-2.8-5.4-2.8-9.6
			v-80.5c0-4.6,1-7.9,3.1-9.9c2-2,5.4-3.1,9.9-3.1h34.5c4.8,0,8.8,0.2,12.2,0.6c3.4,0.4,6.4,1.2,9.1,2.5c3.3,1.4,6.2,3.4,8.7,5.9
			c2.5,2.6,4.4,5.6,5.7,9s2,7,2,10.8c0,7.8-2.2,14-6.6,18.7c-4.4,4.7-11.1,8-20,9.9c3.8,2,7.4,5,10.8,8.9c3.4,3.9,6.5,8.1,9.2,12.5
			c2.7,4.4,4.8,8.4,6.3,11.9c1.5,3.5,2.2,6,2.2,7.3c0,1.4-0.4,2.7-1.3,4.1c-0.9,1.4-2.1,2.4-3.6,3.2c-1.5,0.8-3.3,1.2-5.3,1.2
			c-2.4,0-4.4-0.6-6-1.7c-1.6-1.1-3-2.5-4.2-4.2c-1.2-1.7-2.7-4.2-4.7-7.6l-8.5-14.1c-3-5.2-5.8-9.1-8.2-11.9
			c-2.4-2.7-4.8-3.9-7.3-4.9C243.5,216,240.3,217,236.6,217z M248.8,170.8h-19.6v28.8h19c5.1,0,9.4-0.4,12.9-1.3
			c3.5-0.9,6.1-2.4,8-4.5c1.8-2.1,2.8-5,2.8-8.7c0-2.9-0.7-5.5-2.2-7.7c-1.5-2.2-3.5-3.9-6.1-5C260.9,171.3,256.1,170.8,248.8,170.8
			z M263.5,217.4h-38v-4.6h38V217.4z"/>
		<path class="st2" d="M331.1,248.4v-33.2l-25.6-39.6c-2.2-3.6-3.8-6.4-4.7-8.4c-0.9-2-1.4-3.7-1.4-5.2c0-2.4,0.9-4.5,2.8-6.3
			c1.9-1.8,4.2-2.6,7-2.6c2.9,0,5.1,0.8,6.6,2.5c1.5,1.6,3.7,4.9,6.7,9.8l19.6,31.8l19.8-31.8c1.2-2,2.2-3.6,3-4.9
			c0.8-1.3,1.7-2.6,2.7-3.7c1-1.2,2.1-2.1,3.2-2.7c1.2-0.6,2.6-0.9,4.4-0.9c2.7,0,4.9,0.9,6.7,2.6c1.8,1.7,2.7,3.7,2.7,6
			c0,1.9-0.5,3.7-1.4,5.6c-0.9,1.9-2.5,4.4-4.6,7.7l-26.2,40.2v33.2c0,4.3-1,7.6-3,9.7s-4.5,3.2-7.6,3.2c-3.1,0-5.7-1.1-7.6-3.2
			C332.1,256,331.1,252.8,331.1,248.4z"/>
		<path class="st2" d="M439.8,218.8h-19.4v29.6c0,4.2-1,7.5-3,9.6c-2,2.2-4.5,3.3-7.6,3.3c-3.2,0-5.8-1.1-7.7-3.2
			c-2-2.2-2.9-5.3-2.9-9.5v-80.7c0-4.7,1.1-8,3.2-10c2.1-2,5.5-3,10.2-3h27.2c8,0,14.2,0.6,18.6,1.9c4.3,1.2,8,3.2,11.1,5.9
			c3.1,2.8,5.5,6.1,7.1,10.1c1.6,4,2.4,8.5,2.4,13.5c0,10.7-3.3,18.7-9.9,24.2C462.6,216,452.8,218.8,439.8,218.8z M434.7,170.8
			h-14.3v32h14.3c5,0,9.2-0.5,12.5-1.6c3.4-1,5.9-2.8,7.7-5.1c1.8-2.4,2.6-5.5,2.6-9.4c0-4.6-1.4-8.4-4.1-11.3
			C450.4,172.3,444.1,170.8,434.7,170.8z"/>
	</g>
</g>
<g id="Layer_8">
	<g>
		<path class="st3" d="M192.8,148.7c0.3-2.1,0.4-4.3,0.4-6.6c0-26.6-21.1-48.1-47.2-48.1c-26,0-47.2,21.5-47.2,48.1
			c0,2.2,0.2,4.4,0.4,6.6H192.8z"/>
		<path class="st4" d="M255,147.9c-0.3-59.8-48.8-108.1-108.6-108.1C86.5,39.8,38,88.1,37.7,147.9H75c0-0.6,0-1.2,0-1.8
			c0-3.9,0.3-7.7,1-11.5c-2.7-3.2-8.6-9.2-14.5-9c0,0,12.2-6.5,18.6-5.6c6.9-17.1,20.4-30.9,37.3-38.2c1.5-5.1,5.5-17.1,11.1-18
			c0,0-0.7,8,4.1,13.4c4-0.7,8.1-1.1,12.3-1.1c20.7,0,39.3,9,52.1,23.3c5.5,0.9,15.6,2.1,19.6-0.7c0,0,1.5,9.8-8.1,18.3
			c4,8.8,6.3,18.7,6.3,29c0,0.6,0,1.2,0,1.8H255z"/>
		<g>
			<path class="st3" d="M100.5,161.7c0,0,19.4-13.9,41.8-5.1c0,0,17,8,20.7,13.3c0,0-21.3-2.2-35.6,4.1
				C127.4,174.1,118.2,162.4,100.5,161.7z"/>
			<path class="st3" d="M147.5,155.2c0,0,8.8,4.3,17,11.3c0,0,12,1.8,17-11.3c0,0-10.1,4-32.9,0H147.5z"/>
			<path class="st5" d="M124.2,180.7c0,0,5.1-7.9,27.1-6.6c0,0,20.9,1.9,31.8-11.5c0,0,1.2,23.3-20.1,24.5
				C163.1,187.1,146.6,187.7,124.2,180.7z"/>
			<path class="st3" d="M106.8,176.8c0,0,12.3,9.6,28.8,11c0,0,6.7,0.1,10.3-0.1c0,0,12.9-0.1,17.8,4.2c0,0-11.3-0.8-19.6,4.3
				c0,0-15.1,6.5-23.7,2.9c0,0-6.9-2.6-12.2-15.6L106.8,176.8z"/>
			<path class="st5" d="M122,207.1c0,0,13.3-10.1,31.2-7.9c0,0,19.7,4.1,28.8-15.2c0,0,7.5,16.5-17.4,28.4c0,0-3.3,3.2-29.2,1.8
				c0,0-11-1.3-15.5,9.6L122,207.1z"/>
			<path class="st3" d="M124.9,223c0,0,9.6-8.3,22.5-3.7c0,0,3.8,1.6,6.2,3.7c0,0,3.1,3.1,8.8,1.8c0,0-0.2,4.5-23.5,4.7
				c0,0-7.7-0.9-11.7,0.9c0,0-6.2,2-7.5,4L124.9,223z"/>
			<path class="st3" d="M152.6,218c0,0,19.5,1,25.5-7.5c0,0,2.4,5.9-10.2,12.4C167.9,222.9,160.2,226,152.6,218z"/>
			<path class="st3" d="M130.2,236c0,0,8.7-6.9,23.5-2.6c0,0,12.1,1.6,18.4-7.7c0,0,1.8,10.9-12.7,16.6c0,0-3.5,2.3-11.9,2.4
				c0,0-4.9,0.6-8.3-2.4L130.2,236z"/>
			<path class="st3" d="M130.2,238.9c0,0,8.2,10.1,17.1,9c0,0,10-0.7,15.2,1.7c0,0-8.8-0.7-13.4,3.3c0,0-5.6,6.1-12.7,0.9
				C136.3,253.8,132.1,250.8,130.2,238.9z"/>
			<path class="st3" d="M132.1,176.8c0,0,22.4-6.3,35.4-0.6c0,0,8.7,4.1,15.3-5.4c0,0,0.8,13.8-15.5,16.5c0,0-4,1.6-14.8-2.8
				c0,0-5.1-4.4-18.4-0.9c0,0-6.3,1.7-15.8-6.7C118.4,177,124.9,178.4,132.1,176.8z"/>
			<path class="st3" d="M136.5,203.5c0,0,16.9-8.1,31.2-7.3c0,0,9.9-0.5,14.1-7.6c0,0,3.7,18.9-19.3,22.5c0,0-3,1.1-14.2,0
				c0,0-3.4-1.2-12.4,3c0,0-9.1,6.5-17.5-1.9c0,0-1.8-2.2-2.8-4.5C115.6,207.6,122.4,209.7,136.5,203.5z"/>
		</g>
		<path class="st2" d="M260.8,134.5l21.2-11.2c-2.4-12.7-6.5-24.8-12.1-36l-20.3-2.4l8.7-16.8c-14-19.4-32.9-35.1-54.9-45.2
			l-23.6,16.9l2.8-24.5c-11.8-3.3-24.3-5-37.1-5c-1.9,0-3.8,0.1-5.7,0.1l-8.1,12.5l-12.7-10.1c-11.3,2.2-22.2,5.8-32.4,10.5L80,36.2
			l-10.2-3.7C56.9,40.9,45.5,51.4,36,63.5l10.3,18.2l-20.5-3.3c-9.5,16-15.9,34.1-18.4,53.5l20,16.1h18.7c0-1.1-0.1-2.1-0.1-3.2
			c0-55.2,44.8-100,100-100c55.2,0,100,44.8,100,100c0,1.1,0,2.2-0.1,3.2h38.6c0-3.1-0.2-6.2-0.4-9.3L260.8,134.5z"/>
	</g>
</g>
</svg>
