<?xml version="1.0" encoding="utf-8"?>
<!-- Generator: Adobe Illustrator 19.0.0, SVG Export Plug-In . SVG Version: 6.00 Build 0)  -->
<svg version="1.1" xmlns="http://www.w3.org/2000/svg" xmlns:xlink="http://www.w3.org/1999/xlink" x="0px" y="0px"
	 viewBox="-159 264.2 291.5 264.8" style="enable-background:new -159 264.2 291.5 264.8;" xml:space="preserve">
<style type="text/css">
	.st0{display:none;}
	.st1{display:inline;stroke:#000000;stroke-miterlimit:10;}
	.st2{display:inline;}
	.st3{fill:#3EB549;}
	.st4{fill:#FFFFFF;}
	.st5{display:none;fill:#FFFFFF;}
</style>
<g id="Layer_2_1_" class="st0">
	<rect x="-159" y="264.2" class="st1" width="291.5" height="264.8"/>
</g>
<g id="Layer_1">
	<g id="Layer_2" class="st0">
		<g class="st2">
			<path class="st3" d="M-232.4,419.1h27.6c7.2,0,13.4,0.7,18.5,2c5.1,1.3,9.8,3.8,14,7.5c10.9,9.3,16.4,23.5,16.4,42.6
				c0,6.3-0.5,12-1.6,17.2c-1.1,5.2-2.8,9.9-5.1,14c-2.3,4.2-5.2,7.9-8.8,11.2c-2.8,2.5-5.9,4.5-9.2,6.1c-3.3,1.5-6.9,2.6-10.7,3.2
				s-8.2,0.9-13,0.9h-27.6c-3.9,0-6.8-0.6-8.7-1.7c-2-1.2-3.2-2.8-3.8-4.9c-0.6-2.1-0.9-4.9-0.9-8.2v-76.8c0-4.6,1-7.9,3.1-9.9
				C-240.3,420.1-236.9,419.1-232.4,419.1z M-224.2,435.9V507h16.1c3.5,0,6.3-0.1,8.3-0.3c2-0.2,4.1-0.7,6.2-1.4
				c2.1-0.8,4-1.8,5.6-3.2c7.1-6,10.6-16.3,10.6-31c0-10.3-1.6-18.1-4.7-23.2c-3.1-5.1-7-8.4-11.5-9.8c-4.6-1.4-10.1-2.1-16.6-2.1
				L-224.2,435.9L-224.2,435.9z"/>
			<path class="st3" d="M-75.8,511.9l-5-13.1h-42.6l-5,13.4c-2,5.2-3.6,8.8-5,10.6c-1.4,1.8-3.6,2.7-6.8,2.7c-2.7,0-5-1-7.1-2.9
				c-2-2-3.1-4.2-3.1-6.6c0-1.4,0.2-2.9,0.7-4.4c0.5-1.5,1.3-3.6,2.4-6.4l26.8-68c0.8-2,1.7-4.3,2.7-7c1.1-2.7,2.2-5,3.4-6.8
				c1.2-1.8,2.8-3.3,4.8-4.4c2-1.1,4.4-1.7,7.3-1.7c3,0,5.4,0.6,7.4,1.7c2,1.1,3.6,2.6,4.8,4.3c1.2,1.8,2.2,3.7,3.1,5.7
				c0.8,2,1.9,4.7,3.2,8.1l27.3,67.6c2.1,5.1,3.2,8.9,3.2,11.2c0,2.4-1,4.7-3,6.7s-4.5,3-7.3,3c-1.7,0-3.1-0.3-4.3-0.9
				c-1.2-0.6-2.2-1.4-3-2.4s-1.7-2.6-2.6-4.7C-74.4,515.4-75.2,513.5-75.8,511.9z M-117.8,482.8h31.3l-15.8-43.2L-117.8,482.8z"/>
		</g>
	</g>
	<g id="Layer_2_copy" class="st0">
		<g class="st2">
			<path class="st3" d="M77.6,481.2h-7.4v31.4c0,4.4-1,7.7-2.9,9.8s-4.5,3.1-7.6,3.1c-3.4,0-6-1.1-7.9-3.3s-2.8-5.4-2.8-9.6v-80.5
				c0-4.6,1-7.9,3.1-9.9c2-2,5.4-3.1,9.9-3.1h34.5c4.8,0,8.8,0.2,12.2,0.6c3.4,0.4,6.4,1.2,9.1,2.5c3.3,1.4,6.2,3.4,8.7,5.9
				c2.5,2.6,4.4,5.6,5.7,9s2,7,2,10.8c0,7.8-2.2,14-6.6,18.7s-11.1,8-20,9.9c3.8,2,7.4,5,10.8,8.9s6.5,8.1,9.2,12.5
				s4.8,8.4,6.3,11.9s2.2,6,2.2,7.3c0,1.4-0.4,2.7-1.3,4.1c-0.9,1.4-2.1,2.4-3.6,3.2c-1.5,0.8-3.3,1.2-5.3,1.2c-2.4,0-4.4-0.6-6-1.7
				c-1.6-1.1-3-2.5-4.2-4.2s-2.7-4.2-4.7-7.6l-8.5-14.1c-3-5.2-5.8-9.1-8.2-11.9c-2.4-2.7-4.8-3.9-7.3-4.9
				C84.5,480.2,81.3,481.2,77.6,481.2z M89.8,435H70.2v28.8h19c5.1,0,9.4-0.4,12.9-1.3c3.5-0.9,6.1-2.4,8-4.5c1.8-2.1,2.8-5,2.8-8.7
				c0-2.9-0.7-5.5-2.2-7.7c-1.5-2.2-3.5-3.9-6.1-5C101.9,435.5,97.1,435,89.8,435z M104.5,481.6h-38V477h38V481.6z"/>
			<path class="st3" d="M172.1,512.6v-33.2l-25.6-39.6c-2.2-3.6-3.8-6.4-4.7-8.4c-0.9-2-1.4-3.7-1.4-5.2c0-2.4,0.9-4.5,2.8-6.3
				s4.2-2.6,7-2.6c2.9,0,5.1,0.8,6.6,2.5c1.5,1.6,3.7,4.9,6.7,9.8l19.6,31.8l19.8-31.8c1.2-2,2.2-3.6,3-4.9s1.7-2.6,2.7-3.7
				c1-1.2,2.1-2.1,3.2-2.7c1.2-0.6,2.6-0.9,4.4-0.9c2.7,0,4.9,0.9,6.7,2.6c1.8,1.7,2.7,3.7,2.7,6c0,1.9-0.5,3.7-1.4,5.6
				c-0.9,1.9-2.5,4.4-4.6,7.7l-26.2,40.2v33.2c0,4.3-1,7.6-3,9.7c-2,2.1-4.5,3.2-7.6,3.2s-5.7-1.1-7.6-3.2
				C173.1,520.2,172.1,517,172.1,512.6z"/>
			<path class="st3" d="M280.8,483h-19.4v29.6c0,4.2-1,7.5-3,9.6c-2,2.2-4.5,3.3-7.6,3.3c-3.2,0-5.8-1.1-7.7-3.2
				c-2-2.2-2.9-5.3-2.9-9.5v-80.7c0-4.7,1.1-8,3.2-10s5.5-3,10.2-3h27.2c8,0,14.2,0.6,18.6,1.9c4.3,1.2,8,3.2,11.1,5.9
				c3.1,2.8,5.5,6.1,7.1,10.1s2.4,8.5,2.4,13.5c0,10.7-3.3,18.7-9.9,24.2C303.6,480.2,293.8,483,280.8,483z M275.7,435h-14.3v32
				h14.3c5,0,9.2-0.5,12.5-1.6c3.4-1,5.9-2.8,7.7-5.1c1.8-2.4,2.6-5.5,2.6-9.4c0-4.6-1.4-8.4-4.1-11.3
				C291.4,436.5,285.1,435,275.7,435z"/>
		</g>
	</g>
	<g id="Layer_8">
		<g>
			<path class="st4" d="M33.8,412.9c0.3-2.1,0.4-4.3,0.4-6.6c0-26.6-21.1-48.1-47.2-48.1c-26,0-47.2,21.5-47.2,48.1
				c0,2.2,0.2,4.4,0.4,6.6H33.8z"/>
			<path class="st4" d="M96,412.1C95.7,352.3,47.2,304-12.6,304c-59.9,0-108.4,48.3-108.7,108.1H-84c0-0.6,0-1.2,0-1.8
				c0-3.9,0.3-7.7,1-11.5c-2.7-3.2-8.6-9.2-14.5-9c0,0,12.2-6.5,18.6-5.6c6.9-17.1,20.4-30.9,37.3-38.2c1.5-5.1,5.5-17.1,11.1-18
				c0,0-0.7,8,4.1,13.4c4-0.7,8.1-1.1,12.3-1.1c20.7,0,39.3,9,52.1,23.3c5.5,0.9,15.6,2.1,19.6-0.7c0,0,1.5,9.8-8.1,18.3
				c4,8.8,6.3,18.7,6.3,29c0,0.6,0,1.2,0,1.8H96V412.1z"/>
			<g>
				<path class="st4" d="M-58.5,425.9c0,0,19.4-13.9,41.8-5.1c0,0,17,8,20.7,13.3c0,0-21.3-2.2-35.6,4.1
					C-31.6,438.3-40.8,426.6-58.5,425.9z"/>
				<path class="st4" d="M-11.5,419.4c0,0,8.8,4.3,17,11.3c0,0,12,1.8,17-11.3c0,0-10.1,4-32.9,0H-11.5z"/>
				<path class="st5" d="M-34.8,444.9c0,0,5.1-7.9,27.1-6.6c0,0,20.9,1.9,31.8-11.5c0,0,1.2,23.3-20.1,24.5
					C4.1,451.3-12.4,451.9-34.8,444.9z"/>
				<path class="st4" d="M-52.2,441c0,0,12.3,9.6,28.8,11c0,0,6.7,0.1,10.3-0.1c0,0,12.9-0.1,17.8,4.2c0,0-11.3-0.8-19.6,4.3
					c0,0-15.1,6.5-23.7,2.9c0,0-6.9-2.6-12.2-15.6L-52.2,441z"/>
				<path class="st5" d="M-37,471.3c0,0,13.3-10.1,31.2-7.9c0,0,19.7,4.1,28.8-15.2c0,0,7.5,16.5-17.4,28.4c0,0-3.3,3.2-29.2,1.8
					c0,0-11-1.3-15.5,9.6L-37,471.3z"/>
				<path class="st4" d="M-34.1,487.2c0,0,9.6-8.3,22.5-3.7c0,0,3.8,1.6,6.2,3.7c0,0,3.1,3.1,8.8,1.8c0,0-0.2,4.5-23.5,4.7
					c0,0-7.7-0.9-11.7,0.9c0,0-6.2,2-7.5,4L-34.1,487.2z"/>
				<path class="st4" d="M-6.4,482.2c0,0,19.5,1,25.5-7.5c0,0,2.4,5.9-10.2,12.4C8.9,487.1,1.2,490.2-6.4,482.2z"/>
				<path class="st4" d="M-28.8,500.2c0,0,8.7-6.9,23.5-2.6c0,0,12.1,1.6,18.4-7.7c0,0,1.8,10.9-12.7,16.6c0,0-3.5,2.3-11.9,2.4
					c0,0-4.9,0.6-8.3-2.4L-28.8,500.2z"/>
				<path class="st4" d="M-28.8,503.1c0,0,8.2,10.1,17.1,9c0,0,10-0.7,15.2,1.7c0,0-8.8-0.7-13.4,3.3c0,0-5.6,6.1-12.7,0.9
					C-22.7,518-26.9,515-28.8,503.1z"/>
				<path class="st4" d="M-26.9,441c0,0,22.4-6.3,35.4-0.6c0,0,8.7,4.1,15.3-5.4c0,0,0.8,13.8-15.5,16.5c0,0-4,1.6-14.8-2.8
					c0,0-5.1-4.4-18.4-0.9c0,0-6.3,1.7-15.8-6.7C-40.6,441.2-34.1,442.6-26.9,441z"/>
				<path class="st4" d="M-22.5,467.7c0,0,16.9-8.1,31.2-7.3c0,0,9.9-0.5,14.1-7.6c0,0,3.7,18.9-19.3,22.5c0,0-3,1.1-14.2,0
					c0,0-3.4-1.2-12.4,3c0,0-9.1,6.5-17.5-1.9c0,0-1.8-2.2-2.8-4.5C-43.4,471.8-36.6,473.9-22.5,467.7z"/>
			</g>
			<path class="st4" d="M101.8,398.7l21.2-11.2c-2.4-12.7-6.5-24.8-12.1-36l-20.3-2.4l8.7-16.8c-14-19.4-32.9-35.1-54.9-45.2
				L20.8,304l2.8-24.5c-11.8-3.3-24.3-5-37.1-5c-1.9,0-3.8,0.1-5.7,0.1l-8.1,12.5L-40,277c-11.3,2.2-22.2,5.8-32.4,10.5l-6.6,12.9
				l-10.2-3.7c-12.9,8.4-24.3,18.9-33.8,31l10.3,18.2l-20.5-3.3c-9.5,16-15.9,34.1-18.4,53.5l20,16.1h18.7c0-1.1-0.1-2.1-0.1-3.2
				c0-55.2,44.8-100,100-100S87,353.8,87,409c0,1.1,0,2.2-0.1,3.2h38.6c0-3.1-0.2-6.2-0.4-9.3L101.8,398.7z"/>
		</g>
	</g>
</g>
</svg>
